<?xml version="1.0" encoding="utf-8"?>
<svg version="1.1" baseProfile="full" xmlns="http://www.w3.org/2000/svg" xmlns:xlink="http://www.w3.org/1999/xlink" xmlns:ev="http://www.w3.org/2001/xml-events" xml:space="preserve" x="0px" y="0px" width="30px" height="30px"  viewBox="0 0 30px 30px" preserveAspectRatio="none" shape-rendering="geometricPrecision"><path xmlns="http://www.w3.org/2000/svg" fill="rgb(254, 132, 24)" d="M46,7473a15,15,0,1,1,15-15A15,15,0,0,1,46,7473Zm0-27.66A12.66,12.66,0,1,0,58.656,7458,12.659,12.659,0,0,0,46,7445.34Zm4.167,20.16c-0.334,0-3.084.24-7.26-3.94s-4.407-7.47-4.407-7.73a15.55,15.55,0,0,1,2.865-3.33c0.333,0,2.386,3.56,2.344,3.8s-1.568,1.26-1.568,1.59a8.688,8.688,0,0,0,2.454,4.26c1.828,1.83,3.469,1.88,3.732,1.75a11.493,11.493,0,0,1,1.527-1.3A16.21,16.21,0,0,1,53.5,7463,13.7,13.7,0,0,1,50.167,7465.5Z" transform="translate(-31 -7443)"/></svg>